####
#
# OBJ File Generated by Meshlab
#
####
# Object dihedral.obj
#
# Vertices: 6
# Faces: 4
#
####
vn 1.1107206 -1.1107206 0.0000000
v 1.0606600 1.0606600 -0.7500000
vn 2.2214413 0.0000000 0.0000000
v 0.0000000 0.0000000 0.7500000
vn 2.2214415 0.0000000 0.0000000
v 0.0000000 0.0000000 -0.7500000
vn 1.1107208 -1.1107208 0.0000000
v 1.0606600 1.0606600 0.7500000
vn 1.1107206 1.1107206 0.0000000
v -1.0606600 1.0606600 -0.7500000
vn 1.1107208 1.1107208 0.0000000
v -1.0606600 1.0606600 0.7500000
# 6 vertices, 0 vertices normals

f 1//1 2//2 3//3
f 4//4 2//2 1//1
f 5//5 2//2 3//3
f 6//6 2//2 5//5
# 4 faces, 0 coords texture

# End of File
