####
#
# OBJ File Generated by Meshlab
#
####
# Object trihedral.obj
#
# Vertices: 4
# Faces: 3
#
####
vn 0.5553603 -0.0000736 0.9619124
v 1.0606600 0.8660723 -0.6123061
vn -0.5553603 -0.0000736 0.9619124
v -1.0606600 0.8660723 -0.6123061
vn 0.0000000 -0.9070961 2.5650301
v 0.0000000 0.0000000 0.0000000
vn 0.0000000 -0.9069487 0.6412055
v 0.0000000 0.8659316 1.2248110
# 4 vertices, 0 vertices normals

f 1//1 2//2 3//3
f 4//4 2//2 3//3
f 1//1 4//4 3//3
# 3 faces, 0 coords texture

# End of File
